<mxfile host="app.diagrams.net" modified="2023-10-17T10:53:11.114Z" agent="Mozilla/5.0 (Windows NT 10.0; Win64; x64) AppleWebKit/537.36 (KHTML, like Gecko) Chrome/118.0.0.0 Safari/537.36" etag="w1BxzfqRjeJes5cIyK5T" version="22.0.4" type="github">
  <diagram name="第 1 页" id="R4sx2pC3p9V4Sm4uHiXX">
    <mxGraphModel dx="1434" dy="758" grid="1" gridSize="10" guides="1" tooltips="1" connect="1" arrows="1" fold="1" page="1" pageScale="1" pageWidth="827" pageHeight="1169" math="0" shadow="0">
      <root>
        <mxCell id="0" />
        <mxCell id="1" parent="0" />
        <mxCell id="6uuVD3wL9cBET_sc90WE-1" value="&lt;div data-page-id=&quot;Z9ZmdMRW3oyBHDxpsjpc2YOdn1g&quot; data-docx-has-block-data=&quot;true&quot;&gt;&lt;div style=&quot;text-align:center&quot; data-type=&quot;image&quot; data-ace-gallery-json=&quot;{&amp;quot;items&amp;quot;:[{&amp;quot;uuid&amp;quot;:&amp;quot;e0801709-eedb-445b-92aa-1642f9e41e29&amp;quot;,&amp;quot;height&amp;quot;:1021,&amp;quot;width&amp;quot;:464,&amp;quot;currHeight&amp;quot;:1021,&amp;quot;currWidth&amp;quot;:464,&amp;quot;natrualHeight&amp;quot;:1021,&amp;quot;natrualWidth&amp;quot;:464,&amp;quot;pluginName&amp;quot;:&amp;quot;imageUpload&amp;quot;,&amp;quot;scale&amp;quot;:1,&amp;quot;src&amp;quot;:&amp;quot;https%3A%2F%2Finternal-api-drive-stream.feishu.cn%2Fspace%2Fapi%2Fbox%2Fstream%2Fdownload%2Fpreview%2FLtuAbpNhVo6BoyxHZ5CcaDHQnZS%2F%3Fpreview_type%3D16&amp;quot;,&amp;quot;file_token&amp;quot;:&amp;quot;LtuAbpNhVo6BoyxHZ5CcaDHQnZS&amp;quot;,&amp;quot;image_type&amp;quot;:&amp;quot;image/png&amp;quot;,&amp;quot;size&amp;quot;:54294,&amp;quot;comments&amp;quot;:[]}]}&quot; class=&quot;image-uploaded gallery old-record-id-DrlZdhjZiox5bdxZI99crLXInpg&quot;&gt;&lt;img src=&quot;https://sole2021.feishu.cn/space/api/box/stream/download/asynccode/?code=YWZjNjFlOTQxZTQzMzE0Njk5ZDkxZTNjM2RkMjczMzBfN0ZGSnc2cUlUaFZQanRlV1hhUjRMZ1VNazhCa3FkektfVG9rZW46THR1QWJwTmhWbzZCb3l4SFo1Q2NhREhRblpTXzE2OTc1Mzk5ODI6MTY5NzU0MzU4Ml9WNA&quot; data-single-block=&quot;true&quot; data-snapshot=&quot;eyJ0eXBlIjoiaW1hZ2UiLCJwYXJlbnRfaWQiOiJaOVptZE1SVzNveUJIRHhwc2pwYzJZT2RuMWciLCJjb21tZW50cyI6W10sImxvY2tlZCI6ZmFsc2UsImhpZGRlbiI6ZmFsc2UsImF1dGhvciI6IjcyNzc1NTc4ODI4NTY0Mzk4MTAiLCJhbGlnbiI6ImNlbnRlciIsImltYWdlIjp7InRva2VuIjoiTHR1QWJwTmhWbzZCb3l4SFo1Q2NhREhRblpTIiwibWltZVR5cGUiOiJpbWFnZS9wbmciLCJzaXplIjo1NDI5NCwic2NhbGUiOjEsIndpZHRoIjo0NjQsImhlaWdodCI6MTAyMSwibmFtZSI6ImNvbXBpbGVfYW5kX2xpbmtfcHJvZ3JhbS5kcmF3aW8ucG5nIiwiY3JvcCI6WzAsMCwwLDBdLCJyb3RhdGlvbiI6MCwiY2FwdGlvbiI6eyJ0ZXh0Ijp7ImFwb29sIjp7Im5leHROdW0iOjAsIm51bVRvQXR0cmliIjpudWxsfSwiaW5pdGlhbEF0dHJpYnV0ZWRUZXh0cyI6eyJhdHRyaWJzIjpudWxsLCJ0ZXh0IjpudWxsfX19fX0=&quot; data-suite=&quot;eyJmaWxlVG9rZW4iOiJMdHVBYnBOaFZvNkJveXhIWjVDY2FESFFuWlMiLCJvYmpUeXBlIjoiZG9jeCIsIm9ialRva2VuIjoiRHJsWmRoalppb3g1YmR4Wkk5OWNyTFhJbnBnIiwib3JpZ2luU3JjIjoiaHR0cHM6Ly9pbnRlcm5hbC1hcGktZHJpdmUtc3RyZWFtLmZlaXNodS5jbi9zcGFjZS9hcGkvYm94L3N0cmVhbS9kb3dubG9hZC9wcmV2aWV3L0x0dUFicE5oVm82Qm95eEhaNUNjYURIUW5aUy8/cHJldmlld190eXBlPTE2In0=&quot; data-src=&quot;https://internal-api-drive-stream.feishu.cn/space/api/box/stream/download/all/LtuAbpNhVo6BoyxHZ5CcaDHQnZS/?mount_node_token=DrlZdhjZiox5bdxZI99crLXInpg&amp;amp;mount_point=docx_image&quot; data-width=&quot;464&quot; data-height=&quot;1021&quot;&gt;&lt;/div&gt;&lt;/div&gt;&lt;span data-lark-record-data=&quot;{&amp;quot;isCut&amp;quot;:false,&amp;quot;rootId&amp;quot;:&amp;quot;Z9ZmdMRW3oyBHDxpsjpc2YOdn1g&amp;quot;,&amp;quot;parentId&amp;quot;:&amp;quot;Z9ZmdMRW3oyBHDxpsjpc2YOdn1g&amp;quot;,&amp;quot;blockIds&amp;quot;:[14],&amp;quot;recordIds&amp;quot;:[&amp;quot;DrlZdhjZiox5bdxZI99crLXInpg&amp;quot;],&amp;quot;recordMap&amp;quot;:{&amp;quot;DrlZdhjZiox5bdxZI99crLXInpg&amp;quot;:{&amp;quot;id&amp;quot;:&amp;quot;DrlZdhjZiox5bdxZI99crLXInpg&amp;quot;,&amp;quot;snapshot&amp;quot;:{&amp;quot;type&amp;quot;:&amp;quot;image&amp;quot;,&amp;quot;parent_id&amp;quot;:&amp;quot;Z9ZmdMRW3oyBHDxpsjpc2YOdn1g&amp;quot;,&amp;quot;comments&amp;quot;:[],&amp;quot;locked&amp;quot;:false,&amp;quot;hidden&amp;quot;:false,&amp;quot;author&amp;quot;:&amp;quot;7277557882856439810&amp;quot;,&amp;quot;align&amp;quot;:&amp;quot;center&amp;quot;,&amp;quot;image&amp;quot;:{&amp;quot;token&amp;quot;:&amp;quot;LtuAbpNhVo6BoyxHZ5CcaDHQnZS&amp;quot;,&amp;quot;mimeType&amp;quot;:&amp;quot;image/png&amp;quot;,&amp;quot;size&amp;quot;:54294,&amp;quot;scale&amp;quot;:1,&amp;quot;width&amp;quot;:464,&amp;quot;height&amp;quot;:1021,&amp;quot;name&amp;quot;:&amp;quot;compile_and_link_program.drawio.png&amp;quot;,&amp;quot;crop&amp;quot;:[0,0,0,0],&amp;quot;rotation&amp;quot;:0,&amp;quot;caption&amp;quot;:{&amp;quot;text&amp;quot;:{&amp;quot;apool&amp;quot;:{&amp;quot;nextNum&amp;quot;:0,&amp;quot;numToAttrib&amp;quot;:null},&amp;quot;initialAttributedTexts&amp;quot;:{&amp;quot;attribs&amp;quot;:null,&amp;quot;text&amp;quot;:null}}}}}},&amp;quot;Z9ZmdMRW3oyBHDxpsjpc2YOdn1g&amp;quot;:{&amp;quot;id&amp;quot;:&amp;quot;Z9ZmdMRW3oyBHDxpsjpc2YOdn1g&amp;quot;,&amp;quot;snapshot&amp;quot;:{&amp;quot;type&amp;quot;:&amp;quot;page&amp;quot;,&amp;quot;parent_id&amp;quot;:&amp;quot;&amp;quot;,&amp;quot;comments&amp;quot;:null,&amp;quot;locked&amp;quot;:false,&amp;quot;hidden&amp;quot;:false,&amp;quot;author&amp;quot;:&amp;quot;7277557882856439810&amp;quot;,&amp;quot;children&amp;quot;:[&amp;quot;IWC5dlsgfoSjpkx9je8cah1mnrh&amp;quot;,&amp;quot;EVoHdWDaNo4S1CxGOrQcvJknnie&amp;quot;,&amp;quot;QBAgdu8cOoZ0LixxFTmcq7MKnQf&amp;quot;,&amp;quot;AzbbdzmtdohIGgxrkyCc50qmnDf&amp;quot;,&amp;quot;PXKXd5HZRoPmDoxTHuJcYrgen7d&amp;quot;,&amp;quot;THGldntHvoSkXNxVsMFcKDCYnih&amp;quot;,&amp;quot;Vg8LdRIHyoWjHrxuZdpcnHxBncg&amp;quot;,&amp;quot;TSNkdPFqLovlvqxpzWmcww4mnvf&amp;quot;,&amp;quot;YiEudYCpxo3ZZBxPPO6cbflonGe&amp;quot;,&amp;quot;RDbRdxnzCo6ux4x5qVhcn7CdnWh&amp;quot;,&amp;quot;HmR7dxzELos1S2xUc43cf4XCnyd&amp;quot;,&amp;quot;K0fxdQsxMoox6Xxo4vcc2wPdnlg&amp;quot;,&amp;quot;DrlZdhjZiox5bdxZI99crLXInpg&amp;quot;,&amp;quot;Cqvcd4cNeohCBbxOHuMcIekAncg&amp;quot;,&amp;quot;UDJSdKJZpo4BZSx2VQEc0cP8nNf&amp;quot;,&amp;quot;YWNbdNHBDoLyRCxvJntc8wYtnef&amp;quot;,&amp;quot;TG3QdYOn1oB2ssxw06uc6js5n6g&amp;quot;,&amp;quot;R9ODdJsjvoHjFxxKLr5csCX2nRb&amp;quot;],&amp;quot;text&amp;quot;:{&amp;quot;apool&amp;quot;:{&amp;quot;nextNum&amp;quot;:2,&amp;quot;numToAttrib&amp;quot;:{&amp;quot;0&amp;quot;:[&amp;quot;author&amp;quot;,&amp;quot;7277557882856439810&amp;quot;],&amp;quot;1&amp;quot;:[&amp;quot;abbreviation-data&amp;quot;,&amp;quot;{\&amp;quot;id\&amp;quot;:\&amp;quot;f41b0661-8e36-4837-a063-6816d648b032\&amp;quot;,\&amp;quot;abbr_ids\&amp;quot;:\&amp;quot;enterprise_7236999176809119745\&amp;quot;,\&amp;quot;is_visible\&amp;quot;:1,\&amp;quot;is_first\&amp;quot;:1}&amp;quot;]}},&amp;quot;initialAttributedTexts&amp;quot;:{&amp;quot;attribs&amp;quot;:{&amp;quot;0&amp;quot;:&amp;quot;*0+a*1*0+8&amp;quot;},&amp;quot;text&amp;quot;:{&amp;quot;0&amp;quot;:&amp;quot;【更新中】POCL的workflow&amp;quot;}}},&amp;quot;align&amp;quot;:&amp;quot;&amp;quot;,&amp;quot;doc_info&amp;quot;:{&amp;quot;editors&amp;quot;:[&amp;quot;7277557882856439810&amp;quot;],&amp;quot;options&amp;quot;:[&amp;quot;editors&amp;quot;,&amp;quot;create_time&amp;quot;],&amp;quot;deleted_editors&amp;quot;:null}}}},&amp;quot;payloadMap&amp;quot;:{},&amp;quot;extra&amp;quot;:{&amp;quot;mention_page_title&amp;quot;:{},&amp;quot;external_mention_url&amp;quot;:{}},&amp;quot;isKeepQuoteContainer&amp;quot;:false,&amp;quot;selection&amp;quot;:[{&amp;quot;id&amp;quot;:14,&amp;quot;type&amp;quot;:&amp;quot;block&amp;quot;,&amp;quot;recordId&amp;quot;:&amp;quot;DrlZdhjZiox5bdxZI99crLXInpg&amp;quot;}],&amp;quot;pasteFlag&amp;quot;:&amp;quot;96122d78-7369-4406-9886-4e4731ef4365&amp;quot;}&quot; data-lark-record-format=&quot;docx/record&quot; class=&quot;lark-record-clipboard&quot;&gt;&lt;/span&gt;" style="text;whiteSpace=wrap;html=1;" vertex="1" parent="1">
          <mxGeometry x="120" y="20" width="30" height="40" as="geometry" />
        </mxCell>
      </root>
    </mxGraphModel>
  </diagram>
</mxfile>
